<svg width="20" height="13" viewBox="0 0 20 13" fill="none" xmlns="http://www.w3.org/2000/svg">
<path fill-rule="evenodd" clip-rule="evenodd" d="M0 2.25C0 1.411 1.11759e-08 0.665 0.013 0H19.987C20 0.665 20 1.411 20 2.25V4.25C20 8.021 20 9.907 18.828 11.078C17.656 12.249 15.771 12.25 12 12.25H8C4.229 12.25 2.343 12.25 1.172 11.078C0.000999928 9.906 0 8.021 0 4.25V2.25ZM15 4.25C15.2652 4.25 15.5196 4.14464 15.7071 3.95711C15.8946 3.76957 16 3.51522 16 3.25C16 2.98478 15.8946 2.73043 15.7071 2.54289C15.5196 2.35536 15.2652 2.25 15 2.25C14.7348 2.25 14.4804 2.35536 14.2929 2.54289C14.1054 2.73043 14 2.98478 14 3.25C14 3.51522 14.1054 3.76957 14.2929 3.95711C14.4804 4.14464 14.7348 4.25 15 4.25ZM15 8.25C15.2652 8.25 15.5196 8.14464 15.7071 7.95711C15.8946 7.76957 16 7.51522 16 7.25C16 6.98478 15.8946 6.73043 15.7071 6.54289C15.5196 6.35536 15.2652 6.25 15 6.25C14.7348 6.25 14.4804 6.35536 14.2929 6.54289C14.1054 6.73043 14 6.98478 14 7.25C14 7.51522 14.1054 7.76957 14.2929 7.95711C14.4804 8.14464 14.7348 8.25 15 8.25ZM11 3.25C11 3.51522 10.8946 3.76957 10.7071 3.95711C10.5196 4.14464 10.2652 4.25 10 4.25C9.73478 4.25 9.48043 4.14464 9.29289 3.95711C9.10536 3.76957 9 3.51522 9 3.25C9 2.98478 9.10536 2.73043 9.29289 2.54289C9.48043 2.35536 9.73478 2.25 10 2.25C10.2652 2.25 10.5196 2.35536 10.7071 2.54289C10.8946 2.73043 11 2.98478 11 3.25ZM11 7.25C11 7.51522 10.8946 7.76957 10.7071 7.95711C10.5196 8.14464 10.2652 8.25 10 8.25C9.73478 8.25 9.48043 8.14464 9.29289 7.95711C9.10536 7.76957 9 7.51522 9 7.25C9 6.98478 9.10536 6.73043 9.29289 6.54289C9.48043 6.35536 9.73478 6.25 10 6.25C10.2652 6.25 10.5196 6.35536 10.7071 6.54289C10.8946 6.73043 11 6.98478 11 7.25ZM5 4.25C5.26522 4.25 5.51957 4.14464 5.70711 3.95711C5.89464 3.76957 6 3.51522 6 3.25C6 2.98478 5.89464 2.73043 5.70711 2.54289C5.51957 2.35536 5.26522 2.25 5 2.25C4.73478 2.25 4.48043 2.35536 4.29289 2.54289C4.10536 2.73043 4 2.98478 4 3.25C4 3.51522 4.10536 3.76957 4.29289 3.95711C4.48043 4.14464 4.73478 4.25 5 4.25ZM5 8.25C5.26522 8.25 5.51957 8.14464 5.70711 7.95711C5.89464 7.76957 6 7.51522 6 7.25C6 6.98478 5.89464 6.73043 5.70711 6.54289C5.51957 6.35536 5.26522 6.25 5 6.25C4.73478 6.25 4.48043 6.35536 4.29289 6.54289C4.10536 6.73043 4 6.98478 4 7.25C4 7.51522 4.10536 7.76957 4.29289 7.95711C4.48043 8.14464 4.73478 8.25 5 8.25Z" fill="#F2F2F2"/>
</svg>
