<svg width="20" height="7" viewBox="0 0 20 7" fill="none" xmlns="http://www.w3.org/2000/svg">
<path d="M5.71616 0.755972C5.71616 0.555476 5.63651 0.363192 5.49474 0.221419C5.35297 0.0796469 5.16068 0 4.96019 0C4.75969 0 4.56741 0.0796469 4.42563 0.221419C4.28386 0.363192 4.20421 0.555476 4.20421 0.755972V2.34855C2.75275 2.46447 1.80123 2.74872 1.1017 3.44925C0.401169 4.14878 0.116924 5.1013 0 6.55176H20C19.8831 5.10029 19.5988 4.14878 18.8983 3.44925C18.1988 2.74872 17.2462 2.46447 15.7958 2.34755V0.755972C15.7958 0.555476 15.7161 0.363192 15.5744 0.221419C15.4326 0.0796469 15.2403 0 15.0398 0C14.8393 0 14.647 0.0796469 14.5053 0.221419C14.3635 0.363192 14.2838 0.555476 14.2838 0.755972V2.28102C13.6135 2.26792 12.8616 2.26792 12.0159 2.26792H7.98408C7.13839 2.26792 6.38645 2.26792 5.71616 2.28102V0.755972Z" fill="#F2F2F2"/>
</svg>
