<svg width="20" height="19" viewBox="0 0 20 19" fill="none" xmlns="http://www.w3.org/2000/svg">
<path d="M15.25 0.25H4.75C3.49022 0.25 2.28204 0.750445 1.39124 1.64124C0.500445 2.53204 0 3.74022 0 5V14C0 14.6238 0.122862 15.2415 0.361572 15.8177C0.600282 16.394 0.950164 16.9177 1.39124 17.3588C2.28204 18.2496 3.49022 18.75 4.75 18.75H15.25C16.509 18.7474 17.7156 18.2461 18.6058 17.3558C19.4961 16.4656 19.9974 15.259 20 14V5C19.9974 3.74103 19.4961 2.53439 18.6058 1.64416C17.7156 0.753936 16.509 0.252642 15.25 0.25ZM11.6 8.57C11.108 8.85059 10.5514 8.99815 9.985 8.99815C9.41861 8.99815 8.862 8.85059 8.37 8.57L1.52 4.64C1.60857 3.8453 1.98701 3.11115 2.58292 2.57797C3.17883 2.04478 3.95038 1.75 4.75 1.75H15.25C16.049 1.75219 16.8194 2.04773 17.4148 2.5805C18.0103 3.11327 18.3893 3.84616 18.48 4.64L11.6 8.57Z" fill="#F2F2F2"/>
</svg>
