<svg width="20" height="19" viewBox="0 0 20 19" fill="none" xmlns="http://www.w3.org/2000/svg">
<path d="M15.25 0H4.75C3.49022 0 2.28204 0.500445 1.39124 1.39124C0.500445 2.28204 0 3.49022 0 4.75V13.75C0 14.3738 0.122862 14.9915 0.361572 15.5677C0.600282 16.144 0.950164 16.6677 1.39124 17.1088C2.28204 17.9996 3.49022 18.5 4.75 18.5H15.25C16.509 18.4974 17.7156 17.9961 18.6058 17.1058C19.4961 16.2156 19.9974 15.009 20 13.75V4.75C19.9974 3.49103 19.4961 2.28439 18.6058 1.39416C17.7156 0.503936 16.509 0.00264212 15.25 0ZM11.6 8.32C11.108 8.60059 10.5514 8.74815 9.985 8.74815C9.41861 8.74815 8.862 8.60059 8.37 8.32L1.52 4.39C1.60857 3.5953 1.98701 2.86115 2.58292 2.32797C3.17883 1.79478 3.95038 1.5 4.75 1.5H15.25C16.049 1.50219 16.8194 1.79773 17.4148 2.3305C18.0103 2.86327 18.3893 3.59616 18.48 4.39L11.6 8.32Z" fill="#F2F2F2"/>
</svg>
