<svg width="32" height="32" viewBox="0 0 32 32" fill="none" xmlns="http://www.w3.org/2000/svg">
<g clip-path="url(#clip0_1124_15)">
<path fill-rule="evenodd" clip-rule="evenodd" d="M24.8 2.88729C25.1239 2.56596 25.3031 2.1356 25.2989 1.68891C25.2949 1.24219 25.108 0.814884 24.7783 0.499004C24.4487 0.183123 24.0028 0.00394616 23.5367 6.44044e-05C23.0706 -0.00381735 22.6215 0.167907 22.2862 0.478249L15.3707 7.10396C15.204 7.26365 14.9779 7.35337 14.7423 7.35337C14.5066 7.35337 14.2805 7.26365 14.1138 7.10396L9.71378 2.88729C9.54979 2.72457 9.35361 2.59477 9.13672 2.50548C8.91983 2.4162 8.68655 2.3692 8.45049 2.36723C8.21444 2.36527 7.98034 2.40837 7.76186 2.49404C7.54337 2.57969 7.34489 2.7062 7.17796 2.86617C7.01105 3.02613 6.87904 3.21636 6.78965 3.42573C6.70027 3.63512 6.65529 3.85945 6.65734 4.08568C6.65938 4.31189 6.70842 4.53545 6.8016 4.74331C6.89478 4.95117 7.03021 5.13916 7.2 5.29632L10.0196 7.9984H3.55556C2.61256 7.9984 1.70819 8.3574 1.0414 8.99641C0.374602 9.63543 0 10.5021 0 11.4058V28.4428C0 29.3465 0.374602 30.2132 1.0414 30.8523C1.70819 31.4913 2.61256 31.8503 3.55556 31.8503H28.4445C29.3874 31.8503 30.2918 31.4913 30.9586 30.8523C31.6255 30.2132 32 29.3465 32 28.4428V11.4058C32 10.5021 31.6255 9.63543 30.9586 8.99641C30.2918 8.3574 29.3874 7.9984 28.4445 7.9984H19.4667L24.8 2.88729ZM11.4898 16.3807C11.5219 16.1031 11.6216 15.8368 11.781 15.6029C11.9404 15.3692 12.1549 15.1747 12.4072 15.0351C12.6595 14.8955 12.9425 14.8147 13.2334 14.7992C13.5243 14.7837 13.8149 14.834 14.0818 14.9461C14.7129 15.2085 15.9093 15.7417 17.4027 16.568C18.896 17.3943 19.9787 18.1219 20.5316 18.5136C20.7661 18.6791 20.9567 18.8951 21.088 19.1441C21.2193 19.3932 21.2878 19.6683 21.2878 19.9473C21.2878 20.2264 21.2193 20.5015 21.088 20.7505C20.9567 20.9996 20.7661 21.2156 20.5316 21.3809C19.9804 21.7712 18.9067 22.4919 17.4027 23.3232C15.8969 24.158 14.7093 24.6861 14.0818 24.9485C13.8149 25.0607 13.5243 25.1109 13.2334 25.0955C12.9425 25.08 12.6595 24.9992 12.4072 24.8596C12.1549 24.72 11.9404 24.5255 11.781 24.2917C11.6216 24.0579 11.5219 23.7916 11.4898 23.514C11.3567 22.3292 11.292 21.1381 11.296 19.9465C11.296 18.3007 11.4133 17.0365 11.4916 16.3823" fill="#FF0000"/>
</g>
<defs>
<clipPath id="clip0_1124_15">
<rect width="32" height="32" fill="white"/>
</clipPath>
</defs>
</svg>
