<svg width="23" height="24" viewBox="0 0 23 24" fill="none" xmlns="http://www.w3.org/2000/svg">
<path fill-rule="evenodd" clip-rule="evenodd" d="M17.825 2.16547C18.0578 1.92447 18.1866 1.6017 18.1836 1.26668C18.1807 0.931646 18.0464 0.611163 17.8094 0.374253C17.5725 0.137342 17.252 0.00295962 16.917 4.83034e-05C16.582 -0.00286301 16.2592 0.12593 16.0182 0.358687L11.0477 5.32797C10.9279 5.44774 10.7654 5.51503 10.596 5.51503C10.4266 5.51503 10.2641 5.44774 10.1443 5.32797L6.98178 2.16547C6.86391 2.04343 6.72291 1.94608 6.56702 1.87911C6.41113 1.81215 6.24346 1.7769 6.07379 1.77542C5.90413 1.77395 5.73587 1.80628 5.57884 1.87053C5.4218 1.93477 5.27914 2.02965 5.15916 2.14963C5.03919 2.2696 4.94431 2.41227 4.88006 2.5693C4.81582 2.72634 4.78349 2.89459 4.78496 3.06426C4.78643 3.23392 4.82168 3.40159 4.88865 3.55748C4.95562 3.71338 5.05296 3.85437 5.175 3.97224L7.20156 5.9988H2.55556C1.87778 5.9988 1.22776 6.26805 0.748505 6.74731C0.269245 7.22657 0 7.87658 0 8.55436V21.3321C0 22.0099 0.269245 22.6599 0.748505 23.1392C1.22776 23.6185 1.87778 23.8877 2.55556 23.8877H20.4445C21.1222 23.8877 21.7722 23.6185 22.2515 23.1392C22.7308 22.6599 23 22.0099 23 21.3321V8.55436C23 7.87658 22.7308 7.22657 22.2515 6.74731C21.7722 6.26805 21.1222 5.9988 20.4445 5.9988H13.9917L17.825 2.16547ZM8.25828 12.2855C8.28136 12.0773 8.35306 11.8776 8.4676 11.7022C8.58215 11.5269 8.73632 11.381 8.91766 11.2763C9.09899 11.1716 9.30242 11.111 9.51151 11.0994C9.72059 11.0878 9.92948 11.1255 10.1213 11.2096C10.5749 11.4064 11.4348 11.8063 12.5082 12.426C13.5815 13.0457 14.3597 13.5914 14.7571 13.8852C14.9256 14.0093 15.0626 14.1713 15.157 14.3581C15.2514 14.5449 15.3006 14.7512 15.3006 14.9605C15.3006 15.1698 15.2514 15.3761 15.157 15.5629C15.0626 15.7497 14.9256 15.9117 14.7571 16.0357C14.3609 16.3284 13.5892 16.8689 12.5082 17.4924C11.4259 18.1185 10.5723 18.5146 10.1213 18.7114C9.92948 18.7955 9.72059 18.8332 9.51151 18.8216C9.30242 18.81 9.09899 18.7494 8.91766 18.6447C8.73632 18.54 8.58215 18.3941 8.4676 18.2188C8.35306 18.0434 8.28136 17.8437 8.25828 17.6355C8.16264 16.7469 8.11614 15.8536 8.119 14.9599C8.119 13.7255 8.20334 12.7774 8.25956 12.2867" fill="#FFFFFF"/>
</svg>
