<svg width="160" height="38" viewBox="0 0 160 38" fill="none" xmlns="http://www.w3.org/2000/svg">
<g clip-path="url(#clip0_1_16)">
<path d="M0.0434963 0.884975C-0.0285418 1.33945 -0.00452905 36.8283 0.067509 37.1153H160V0.861056C159.352 0.781323 0.307636 0.813216 0.0434963 0.884975ZM157.927 31.8131C157.727 31.8131 157.535 31.8131 157.343 31.8131C156.118 31.8052 155.069 32.6025 154.749 33.7666C154.653 34.1094 154.613 34.4602 154.677 34.819C154.693 34.8908 154.685 34.9626 154.693 35.0503H5.32629C5.46236 34.0775 5.26225 33.2483 4.58189 32.5786C3.90153 31.9088 3.06909 31.7175 2.11659 31.853V6.11541C3.05309 6.24299 3.90153 6.05163 4.5899 5.3739C5.27026 4.70415 5.46236 3.86696 5.3423 2.98193C5.37431 2.94207 5.38232 2.92612 5.39032 2.91815C5.39833 2.91018 5.41433 2.9022 5.42234 2.9022C5.51038 2.89423 5.59043 2.87828 5.67847 2.87828C55.2887 2.87828 104.899 2.87828 154.509 2.87828C154.549 2.87828 154.581 2.88626 154.621 2.89423C154.637 2.9022 154.653 2.91018 154.669 2.91815C154.677 2.91815 154.677 2.92612 154.685 2.92612C154.677 2.96599 154.669 3.00585 154.669 3.04572C154.661 3.10951 154.653 3.16532 154.653 3.2291C154.653 3.26897 154.645 3.30884 154.645 3.3487C154.629 4.12211 154.917 4.83172 155.43 5.34998C155.462 5.38188 155.494 5.41377 155.526 5.43769C155.542 5.45364 155.558 5.46958 155.574 5.48553C155.606 5.51742 155.638 5.54134 155.678 5.57323C155.694 5.58918 155.71 5.59715 155.734 5.6131C155.766 5.63702 155.806 5.66891 155.846 5.69283C155.886 5.71675 155.918 5.74067 155.958 5.76459C155.998 5.78851 156.038 5.81243 156.078 5.82838C156.118 5.8523 156.158 5.86824 156.198 5.89216C156.238 5.90811 156.278 5.93203 156.326 5.94798C156.366 5.96392 156.414 5.97987 156.454 5.99582C156.894 6.15528 157.399 6.20312 157.943 6.13136V31.8131H157.927Z" fill="#F2F2F2"/>
<path d="M55.969 10.5405V11.0747C55.969 11.4654 56.0891 11.8083 56.3933 12.0475C56.6974 12.2867 56.7695 12.5817 56.7695 12.9484C56.7615 15.6912 56.7615 18.434 56.7615 21.1689V21.4798C56.7455 21.4798 56.7295 21.4878 56.7054 21.4878C56.6734 21.4001 56.6334 21.3203 56.6094 21.2326C55.5528 17.836 54.5043 14.4315 53.4477 11.0349C53.3036 10.5645 53.1596 10.4528 52.6473 10.4528C51.9589 10.4528 51.2706 10.4528 50.5822 10.4528C50.4621 10.4528 50.3421 10.4688 50.214 10.4688C50.214 10.8754 50.19 11.2502 50.222 11.6169C50.254 11.904 50.4141 12.1591 50.6702 12.3106C50.9104 12.4541 50.9504 12.6295 50.9504 12.8847C50.9424 16.0421 50.9424 19.1995 50.9424 22.3569C50.9424 23.3137 50.9344 24.2625 50.9424 25.2193C50.9424 25.4425 50.8864 25.6179 50.7023 25.7614C50.11 26.2 50.126 26.8139 50.206 27.4438C50.6062 27.5235 53.4717 27.5155 53.7679 27.4199C53.7679 27.2126 53.7599 26.9893 53.7679 26.774C53.7839 26.3754 53.6238 26.0405 53.3197 25.8172C53.0555 25.6259 52.9995 25.3947 52.9995 25.0917C53.0075 22.4206 53.0075 19.7576 53.0075 17.0866V16.7756C53.0875 16.8553 53.1195 16.943 53.1516 17.0387C54.1041 20.0207 55.0646 23.0027 56.0171 25.9847C56.1291 26.3435 56.2652 26.7023 56.3853 27.0611C56.4893 27.372 56.6974 27.5076 57.0256 27.4996C57.3218 27.4916 57.6179 27.4996 57.9141 27.4996C58.6585 27.4996 58.7945 27.3641 58.7945 26.6225C58.7945 22.0858 58.7945 17.541 58.7865 13.0043C58.7865 12.6136 58.8666 12.3026 59.1787 12.0315C59.675 11.6089 59.611 11.0428 59.5389 10.4847C58.7865 10.413 56.2492 10.4449 55.969 10.5405Z" fill="#F2F2F2"/>
<path d="M71.0251 13.1318C70.793 11.7445 69.9605 10.8754 68.5758 10.5804C68.2556 10.5087 67.9195 10.4688 67.5913 10.4688C66.0145 10.4608 64.4456 10.4608 62.8688 10.4608C62.7647 10.4608 62.6527 10.4768 62.5406 10.4847C62.5406 10.8515 62.5246 11.1944 62.5486 11.5372C62.5646 11.8003 62.6847 12.0475 62.9248 12.1751C63.237 12.3425 63.285 12.5976 63.285 12.9086C63.277 14.3438 63.285 15.771 63.285 17.2062C63.285 19.8134 63.285 22.4207 63.293 25.0279C63.293 25.3468 63.237 25.594 62.9328 25.7694C62.6847 25.9129 62.5726 26.1761 62.5486 26.4471C62.5246 26.774 62.5406 27.1009 62.5406 27.4996H63.0129C64.4056 27.4996 65.7903 27.5076 67.1831 27.4996C67.5513 27.4996 67.9195 27.4837 68.2877 27.4358C69.6324 27.2764 70.5369 26.5588 70.905 25.2512C71.0331 24.7887 71.1132 24.2864 71.1132 23.808C71.1292 20.5788 71.1212 17.3497 71.1212 14.1205C71.1051 13.7936 71.0731 13.4588 71.0251 13.1318ZM68.7919 23.9754C68.7919 24.2705 68.7119 24.5814 68.6078 24.8684C68.4477 25.3149 68.0956 25.5541 67.6233 25.5781C67.047 25.602 66.4707 25.594 65.8864 25.586C65.6623 25.586 65.5902 25.5063 65.5742 25.2671C65.5662 25.1714 65.5662 25.0678 65.5662 24.9721V13.0441C65.5662 12.9325 65.5662 12.8209 65.5742 12.7172C65.5822 12.5339 65.6783 12.4063 65.8704 12.4063C66.4707 12.4063 67.079 12.3903 67.6793 12.4222C68.1516 12.4541 68.4878 12.7252 68.6318 13.1717C68.7199 13.4428 68.7919 13.7458 68.7919 14.0328C68.7999 17.3417 68.7999 20.6586 68.7919 23.9754Z" fill="#F2F2F2"/>
<path d="M131.689 25.5222C131.353 25.3947 131.153 25.1635 131.001 24.8525C130.368 23.6087 129.728 22.3648 129.096 21.121C128.728 20.4034 128.359 19.6779 127.991 18.9683C127.839 18.6732 127.799 18.3942 127.975 18.0992C128.095 17.8998 128.191 17.6846 128.295 17.4773C129.104 15.9783 129.912 14.4793 130.713 12.9804C130.841 12.7491 131.009 12.5737 131.249 12.4461C131.513 12.3106 131.753 12.1192 131.833 11.8163C131.945 11.3857 131.897 10.9472 131.873 10.4768C131.449 10.4768 131.073 10.4927 130.689 10.4768C129.928 10.4369 129.432 10.7957 129.08 11.4256C128.167 13.076 127.247 14.7185 126.326 16.369C126.27 16.4726 126.206 16.5763 126.142 16.6799C126.118 16.672 126.094 16.672 126.078 16.664C126.078 15.3165 126.078 13.977 126.078 12.6295C126.078 12.4541 126.15 12.3266 126.294 12.2309C126.911 11.7923 126.895 11.1704 126.807 10.5087H123.037C123.037 10.7399 123.045 10.9472 123.037 11.1545C123.021 11.5372 123.149 11.8721 123.445 12.0953C123.757 12.3345 123.813 12.6375 123.813 12.9963C123.805 16.4328 123.805 19.8772 123.805 23.3137C123.805 23.9515 123.797 24.5894 123.805 25.2193C123.805 25.4505 123.741 25.6498 123.549 25.8013C122.981 26.2398 122.981 26.8378 123.069 27.4518C123.437 27.5315 126.534 27.5235 126.839 27.4438C126.927 26.8059 126.903 26.2 126.31 25.7694C126.118 25.6339 126.086 25.4345 126.086 25.2193C126.094 24.0552 126.094 22.8911 126.086 21.735C126.086 21.4001 126.254 21.1529 126.438 20.8579C126.526 21.0174 126.59 21.137 126.646 21.2566C127.359 22.6918 128.063 24.1349 128.784 25.5621C129.024 26.0405 129.288 26.5109 129.56 26.9734C129.736 27.2764 130.008 27.4677 130.368 27.4757C130.969 27.4916 131.569 27.4837 132.169 27.4837C132.185 27.4837 132.209 27.4597 132.241 27.4278C132.241 27.0451 132.257 26.6624 132.233 26.2717C132.233 25.9129 132.025 25.6498 131.689 25.5222Z" fill="#F2F2F2"/>
<path d="M80.0056 10.4847C79.9576 11.0987 79.8936 11.6967 80.4379 12.1193C80.71 12.3266 80.758 12.5737 80.758 12.8847C80.75 16.5444 80.75 20.2041 80.75 23.8638C80.75 23.9834 80.75 24.111 80.742 24.2306C80.718 24.5415 80.63 24.8286 80.4379 25.0837C80.0377 25.602 79.2533 25.8412 78.5729 25.6578C77.8525 25.4585 77.4443 25.004 77.3482 24.2625C77.3242 24.095 77.3162 23.9196 77.3162 23.7522C77.3162 20.1563 77.3162 16.5524 77.3082 12.9564C77.3082 12.5897 77.3883 12.3186 77.6924 12.0714C78.1887 11.6728 78.3168 11.0748 78.0926 10.4847H74.2346C74.2346 10.7239 74.2426 10.9312 74.2346 11.1385C74.2186 11.5372 74.3627 11.8801 74.6748 12.1033C74.963 12.3186 75.003 12.5737 75.003 12.9006C74.995 16.5444 74.995 20.1961 75.003 23.8399C75.003 24.0711 75.019 24.3023 75.027 24.5336C75.083 25.7136 75.7474 26.8937 77.3082 27.38C78.4288 27.7308 79.5654 27.7308 80.686 27.4119C81.6385 27.1328 82.3669 26.5667 82.7751 25.6419C82.9832 25.1635 83.0473 24.6532 83.0473 24.1349C83.0473 20.3795 83.0473 16.6241 83.0393 12.8608C83.0393 12.5737 83.0953 12.3505 83.3274 12.1511C83.8477 11.6967 83.7676 11.0907 83.7356 10.4927H80.0056V10.4847Z" fill="#F2F2F2"/>
<path d="M104.763 10.5406C103.602 10.1818 102.434 10.1818 101.281 10.5485C100.16 10.8994 99.384 11.617 99.1038 12.781C99.0238 13.1239 98.9998 13.4827 98.9918 13.8335C98.9838 15.5478 98.9838 17.262 98.9838 18.9683C98.9838 20.7543 98.9758 22.5403 98.9838 24.3263C98.9998 25.8811 99.8482 27.0053 101.345 27.4598C102.458 27.7946 103.578 27.7946 104.691 27.4677C106.164 27.0292 107.044 25.8651 107.044 24.3263C107.052 20.7543 107.052 17.1823 107.044 13.6103C107.044 12.1193 106.196 10.9791 104.763 10.5406ZM104.755 18.9842C104.755 20.6586 104.755 22.333 104.755 24.0074C104.755 24.1987 104.755 24.406 104.715 24.5894C104.563 25.2113 104.131 25.5621 103.522 25.7057C103.162 25.7934 102.794 25.7774 102.426 25.6738C101.697 25.4665 101.297 24.9482 101.289 24.1987C101.281 23.2818 101.289 22.3649 101.289 21.4479C101.289 18.9125 101.289 16.3849 101.289 13.8574C101.289 13.4907 101.337 13.1478 101.569 12.8528C101.977 12.3266 102.546 12.1671 103.17 12.207C103.442 12.2229 103.73 12.3106 103.978 12.4302C104.467 12.6694 104.723 13.092 104.755 13.6342C104.771 13.8415 104.763 14.0488 104.763 14.2561C104.755 15.8268 104.755 17.4055 104.755 18.9842Z" fill="#F2F2F2"/>
<path d="M46.6041 25.8492C46.2439 25.594 46.1479 25.2432 46.0758 24.8445C45.7076 22.6997 45.3234 20.5549 44.9472 18.4181C44.547 16.1298 44.1388 13.8415 43.7386 11.5532C43.6185 10.8515 43.2023 10.4688 42.4899 10.4608C41.5695 10.4528 40.649 10.4608 39.7205 10.4608C39.6244 10.4608 39.5364 10.4847 39.4323 10.5007C39.4323 10.7877 39.4163 11.0429 39.4403 11.298C39.4804 11.6728 39.6004 12.0076 39.9526 12.2229C40.0246 12.2707 40.0807 12.3903 40.0887 12.486C40.1047 12.6136 40.0807 12.7571 40.0567 12.8847C39.7605 14.4793 39.4563 16.0819 39.1522 17.6766C38.6959 20.1005 38.2397 22.5323 37.7915 24.9562C37.7274 25.291 37.6154 25.5701 37.3352 25.8013C36.879 26.1761 36.7269 26.9096 36.943 27.4757C37.5193 27.5395 40.4168 27.5156 40.713 27.4358C40.713 27.2046 40.713 26.9574 40.713 26.7182C40.705 26.3754 40.5769 26.0884 40.3048 25.889C40.0487 25.6977 40.0006 25.4664 40.0326 25.1794C40.0887 24.6691 40.1287 24.1588 40.1847 23.6485C40.2328 23.226 40.3448 23.1303 40.777 23.1223C41.5294 23.1223 42.2738 23.1223 43.0262 23.1223C43.1143 23.1223 43.2023 23.1303 43.2824 23.1383C43.5065 23.1701 43.6426 23.2977 43.6746 23.521C43.7626 24.0871 43.8347 24.6611 43.9147 25.2272C43.9467 25.4505 43.8987 25.6419 43.7066 25.7774C43.0823 26.2 43.1223 26.8219 43.1863 27.4757H47.0283C47.0123 27.1328 47.0123 26.8299 46.9803 26.5349C46.9643 26.2638 46.8282 26.0086 46.6041 25.8492ZM42.9702 21.1928C42.2978 21.2008 41.6175 21.2008 40.9451 21.1928C40.657 21.1848 40.5769 21.0971 40.617 20.7862C40.681 20.2679 40.769 19.7496 40.8571 19.2314C41.1933 17.246 41.5374 15.2607 41.8816 13.2754C41.8896 13.2196 41.9056 13.1717 41.9216 13.1159C41.9457 13.1159 41.9617 13.1159 41.9857 13.1159C42.0417 13.395 42.0977 13.674 42.1458 13.9611C42.4979 16.0421 42.8501 18.1311 43.2023 20.2121C43.2343 20.4034 43.2744 20.5948 43.3064 20.7862C43.3304 21.0572 43.2423 21.1928 42.9702 21.1928Z" fill="#F2F2F2"/>
<path d="M144.752 25.6817C144.584 25.5621 144.512 25.3867 144.472 25.1794C144.376 24.5894 144.264 23.9994 144.16 23.4093C143.463 19.4626 142.759 15.5158 142.079 11.5611C141.974 10.9472 141.51 10.4449 140.782 10.4608C139.885 10.4768 138.989 10.4608 138.092 10.4688C137.988 10.4688 137.884 10.4847 137.764 10.5007C137.724 10.8993 137.732 11.2581 137.82 11.6169C137.876 11.8322 137.972 12.0475 138.18 12.1511C138.413 12.2707 138.445 12.4462 138.413 12.6694C138.397 12.7651 138.397 12.8608 138.373 12.9644C138.1 14.4315 137.82 15.8986 137.54 17.3577C137.06 19.9171 136.58 22.4765 136.107 25.0359C136.051 25.3389 135.939 25.5781 135.699 25.7854C135.147 26.2398 135.155 26.8538 135.235 27.4757C135.755 27.5475 138.741 27.5235 139.037 27.4438C139.045 27.3242 139.053 27.1887 139.053 27.0611C139.077 26.5588 138.957 26.1123 138.517 25.8013C138.349 25.6817 138.325 25.4983 138.341 25.307C138.397 24.7488 138.445 24.1907 138.509 23.6326C138.557 23.226 138.669 23.1383 139.093 23.1383C139.845 23.1383 140.59 23.1383 141.342 23.1383C141.43 23.1383 141.518 23.1383 141.598 23.1542C141.814 23.1861 141.958 23.3137 141.99 23.5289C142.071 24.0711 142.143 24.6213 142.231 25.1635C142.279 25.4585 142.207 25.6817 141.95 25.8571C141.718 26.0166 141.55 26.2398 141.526 26.5189C141.494 26.8299 141.518 27.1488 141.518 27.4837H145.32C145.416 26.7661 145.376 26.1282 144.752 25.6817ZM141.198 21.2008C140.598 21.2087 139.997 21.2087 139.389 21.2008C138.949 21.2008 138.877 21.1131 138.941 20.6666C139.037 20.0287 139.133 19.3908 139.245 18.753C139.557 16.9032 139.877 15.0454 140.198 13.1956C140.206 13.1637 140.222 13.1319 140.238 13.1C140.254 13.1 140.278 13.092 140.294 13.092C140.494 14.2481 140.702 15.3962 140.894 16.5524C141.134 17.9397 141.358 19.3191 141.59 20.7064C141.67 21.0812 141.59 21.1928 141.198 21.2008Z" fill="#F2F2F2"/>
<path d="M116.361 10.5405C116.361 10.8196 116.345 11.1146 116.369 11.4016C116.385 11.6807 116.505 11.9359 116.729 12.1033C117.017 12.3186 117.049 12.5897 117.009 12.9166C116.841 14.0647 116.705 15.2208 116.537 16.369C116.129 19.1357 115.713 21.9104 115.304 24.6771C115.288 24.7967 115.256 24.9242 115.216 25.1236C115.176 24.9561 115.152 24.8684 115.136 24.7887C114.832 22.9309 114.528 21.0732 114.232 19.2154C113.896 17.0786 113.575 14.9418 113.231 12.8049C113.183 12.5259 113.223 12.3345 113.455 12.1671C113.663 12.0236 113.816 11.8083 113.84 11.5611C113.872 11.2262 113.848 10.8834 113.848 10.5166H110.214C110.214 10.7957 110.214 11.0508 110.214 11.306C110.222 11.6329 110.334 11.9199 110.59 12.1113C110.878 12.3265 110.966 12.6056 111.022 12.9245C111.15 13.7219 111.294 14.5112 111.438 15.3085C111.822 17.4533 112.207 19.5902 112.583 21.735C112.887 23.4572 113.183 25.1794 113.487 26.9016C113.567 27.3322 113.743 27.4996 114.184 27.5076C114.968 27.5235 115.761 27.5155 116.545 27.5076C116.873 27.5076 117.033 27.372 117.121 27.0451C117.161 26.8777 117.177 26.7103 117.201 26.5348C117.562 24.1907 117.922 21.8466 118.274 19.5024C118.61 17.2939 118.93 15.0773 119.258 12.8607C119.298 12.6056 119.386 12.3824 119.603 12.2309C120.227 11.7844 120.163 11.1545 120.107 10.5246C119.683 10.4528 116.673 10.4608 116.361 10.5405Z" fill="#F2F2F2"/>
<path d="M94.8616 12.1512C94.5015 11.4097 93.9412 10.8755 93.1327 10.6761C92.6685 10.5645 92.1882 10.4848 91.716 10.4768C90.1792 10.4529 88.6424 10.4688 87.1056 10.4688H86.7374C86.6333 10.8276 86.6813 11.1545 86.7374 11.4814C86.7854 11.7445 86.9054 11.9917 87.1296 12.1193C87.4898 12.3346 87.5458 12.6375 87.5458 13.0203C87.5378 17.0069 87.5378 20.9935 87.5378 24.9801C87.5378 25.0917 87.5378 25.2034 87.5378 25.307C87.5378 25.4904 87.4737 25.6419 87.3297 25.7535C86.7454 26.1841 86.6973 26.7821 86.7934 27.4518C87.2496 27.5395 90.3393 27.5156 90.6194 27.4199C90.6194 27.2445 90.6114 27.0691 90.6194 26.8857C90.6434 26.4631 90.4833 26.1123 90.1632 25.8572C89.907 25.6578 89.851 25.4266 89.851 25.1236C89.859 23.7203 89.859 22.3091 89.859 20.9058C89.859 20.3237 89.859 20.3317 90.4513 20.3237C91.1717 20.3078 91.9081 20.3237 92.6205 20.244C93.701 20.1244 94.5015 19.5663 94.9337 18.5457C95.1258 18.0992 95.2459 17.6368 95.2539 17.1584C95.2619 16.0102 95.2699 14.8621 95.2539 13.706C95.2378 13.1638 95.0938 12.6375 94.8616 12.1512ZM92.9486 16.6959C92.9406 16.975 92.9006 17.262 92.8206 17.5251C92.6605 18.0514 92.2843 18.3384 91.732 18.3623C91.2197 18.3862 90.6994 18.3783 90.1792 18.3703C89.915 18.3623 89.851 18.2906 89.851 17.9956C89.851 17.3816 89.851 16.7597 89.851 16.1458C89.851 15.9066 89.851 15.6674 89.851 15.4282C89.851 14.9418 89.851 14.4634 89.851 13.9771C89.851 13.6183 89.851 13.2515 89.851 12.8927C89.851 12.502 89.915 12.4382 90.2912 12.4302C90.7555 12.4223 91.2277 12.4143 91.692 12.4302C92.2923 12.4542 92.6605 12.7253 92.8286 13.2914C92.9086 13.5465 92.9406 13.8176 92.9406 14.0887C92.9646 14.9578 92.9647 15.8268 92.9486 16.6959Z" fill="#F2F2F2"/>
<path d="M20.1661 18.1152C19.6458 17.7883 19.1175 17.4693 18.6133 17.1265C18.2691 16.8952 17.9489 16.6242 17.6287 16.3531C17.3486 16.1139 17.2125 15.7949 17.2205 15.4122C17.2365 14.7425 17.2365 14.0648 17.2205 13.395C17.2125 13.0681 17.3486 12.8289 17.6047 12.6455C18.2931 12.1671 19.1896 12.1352 19.91 12.5419C20.2301 12.7252 20.4062 12.9963 20.3902 13.387C20.3742 13.6422 20.3822 13.8973 20.3902 14.1604C20.4142 14.7584 20.7984 15.2528 21.3827 15.3724C21.839 15.468 22.3032 15.4043 22.7755 15.4122C22.7915 15.3165 22.8155 15.2528 22.8155 15.197C22.8075 14.583 22.8235 13.9691 22.7835 13.3631C22.6954 11.92 21.903 10.9951 20.5503 10.5326C19.6458 10.2217 18.7173 10.2057 17.7808 10.3572C17.6127 10.3811 17.4447 10.421 17.2766 10.4688C15.8598 10.8515 14.9793 11.9359 14.9233 13.403C14.8993 14.001 14.9393 14.6069 14.9073 15.2049C14.8593 16.3212 15.2995 17.2142 16.132 17.9158C16.6282 18.3304 17.1805 18.6813 17.7248 19.04C18.173 19.3351 18.6533 19.5902 19.1015 19.8932C19.3977 20.0925 19.6698 20.3237 19.926 20.5629C20.4142 21.0094 20.6463 21.5676 20.6383 22.2293C20.6303 22.9629 20.6303 23.6964 20.6383 24.43C20.6463 24.8765 20.4462 25.2034 20.078 25.4426C19.3737 25.897 18.6373 25.9768 17.8689 25.6259C17.3326 25.3788 17.0044 25.012 17.0444 24.3741C17.0685 24.0313 17.0524 23.6884 17.0044 23.3536C16.9484 22.9469 16.6843 22.6998 16.292 22.6041C15.7718 22.4765 15.2435 22.5403 14.7072 22.5483C14.6912 22.6679 14.6752 22.7476 14.6752 22.8273C14.6752 23.3376 14.6672 23.8559 14.6752 24.3662C14.7072 25.7854 15.4036 26.7821 16.7163 27.3163C17.9329 27.8026 19.1816 27.8106 20.4462 27.4837C21.7909 27.1329 23.0876 26.0964 23.0316 24.1031C23.0156 23.4891 23.0156 22.8752 23.0316 22.2692C23.0636 21.3124 22.7435 20.4991 22.1271 19.7816C21.5748 19.0959 20.8945 18.5776 20.1661 18.1152Z" fill="#F2F2F2"/>
<path d="M35.7583 11.1306C35.7103 10.7 35.5022 10.5007 35.0779 10.4449C34.9339 10.4289 34.7818 10.421 34.6377 10.421C32.2605 10.421 29.8912 10.421 27.514 10.421C27.3539 10.421 27.1938 10.4289 27.0337 10.4449C26.4494 10.5087 26.2013 10.7798 26.1933 11.3538C26.1853 11.7365 26.1933 12.1113 26.1933 12.494V13.4588C26.6495 13.4588 27.0417 13.4827 27.4339 13.4508C28.0022 13.4109 28.1543 13.2594 28.2343 12.6933C28.2583 12.5099 28.3464 12.3903 28.5305 12.3824C28.8907 12.3744 29.2429 12.3744 29.6031 12.3824C29.7711 12.3903 29.8672 12.5099 29.8832 12.6694C29.8912 12.7571 29.8912 12.8368 29.8912 12.9246C29.8912 16.975 29.8912 21.0254 29.8992 25.0758C29.8992 25.3947 29.8192 25.6419 29.563 25.8492C29.0348 26.2797 29.0588 26.8618 29.1388 27.4916C30.4115 27.4916 31.6601 27.4916 32.9488 27.4916C32.9488 27.2445 32.9488 27.0531 32.9488 26.8618C32.9568 26.4551 32.8208 26.1043 32.5086 25.8571C32.2204 25.6339 32.1564 25.3628 32.1564 25.0279C32.1644 21.0254 32.1644 17.0228 32.1644 13.0202C32.1644 12.9086 32.1564 12.797 32.1724 12.6933C32.2044 12.4781 32.2925 12.3903 32.5086 12.3824C32.8688 12.3744 33.221 12.3824 33.5812 12.3824C33.7332 12.3824 33.8053 12.4621 33.8213 12.6056C33.8293 12.6694 33.8293 12.7252 33.8373 12.789C33.9093 13.2515 34.1415 13.4508 34.6057 13.4667C34.9099 13.4747 35.222 13.4747 35.5262 13.4667C35.6062 13.4667 35.6863 13.4348 35.7983 13.4189C35.7983 12.9485 35.8063 12.502 35.7983 12.0475C35.7903 11.7445 35.7903 11.4336 35.7583 11.1306Z" fill="#F2F2F2"/>
</g>
<defs>
<clipPath id="clip0_1_16">
<rect width="160" height="38" fill="white"/>
</clipPath>
</defs>
</svg>
