<svg width="160" height="37" viewBox="0 0 160 37" fill="none" xmlns="http://www.w3.org/2000/svg">
<path d="M0.0434963 0.070644C-0.0285418 0.525119 -0.00452905 36.014 0.067509 36.301H160V0.046725C159.352 -0.033008 0.307636 -0.00111501 0.0434963 0.070644ZM157.927 30.9988C157.727 30.9988 157.535 30.9988 157.343 30.9988C156.118 30.9909 155.069 31.7882 154.749 32.9523C154.653 33.2951 154.613 33.6459 154.677 34.0047C154.693 34.0765 154.685 34.1483 154.693 34.236H5.32629C5.46236 33.2632 5.26225 32.434 4.58189 31.7643C3.90153 31.0945 3.06909 30.9032 2.11659 31.0387V5.30108C3.05309 5.42866 3.90153 5.2373 4.5899 4.55957C5.27026 3.88982 5.46236 3.05263 5.3423 2.1676C5.37431 2.12774 5.38232 2.11179 5.39032 2.10382C5.39833 2.09585 5.41433 2.08787 5.42234 2.08787C5.51038 2.0799 5.59043 2.06395 5.67847 2.06395C55.2887 2.06395 104.899 2.06395 154.509 2.06395C154.549 2.06395 154.581 2.07193 154.621 2.0799C154.637 2.08787 154.653 2.09585 154.669 2.10382C154.677 2.10382 154.677 2.11179 154.685 2.11179C154.677 2.15166 154.669 2.19152 154.669 2.23139C154.661 2.29518 154.653 2.35099 154.653 2.41477C154.653 2.45464 154.645 2.49451 154.645 2.53437C154.629 3.30778 154.917 4.01739 155.43 4.53565C155.462 4.56755 155.494 4.59944 155.526 4.62336C155.542 4.63931 155.558 4.65525 155.574 4.6712C155.606 4.70309 155.638 4.72701 155.678 4.7589C155.694 4.77485 155.71 4.78282 155.734 4.79877C155.766 4.82269 155.806 4.85458 155.846 4.8785C155.886 4.90242 155.918 4.92634 155.958 4.95026C155.998 4.97418 156.038 4.9981 156.078 5.01405C156.118 5.03797 156.158 5.05391 156.198 5.07783C156.238 5.09378 156.278 5.1177 156.326 5.13365C156.366 5.14959 156.414 5.16554 156.454 5.18149C156.894 5.34095 157.399 5.38879 157.943 5.31703V30.9988H157.927Z" fill="#F2F2F2"/>
</svg>
