<svg width="219" height="32" viewBox="0 0 219 32" fill="none" xmlns="http://www.w3.org/2000/svg">
<path d="M25.7481 24.0964H21.4434L24.1564 7.81857H28.4611L25.7481 24.0964Z" fill="#1434CB"/>
<path d="M41.2952 8.209C40.4343 7.87863 39.1128 7.54827 37.461 7.54827C33.2264 7.54827 30.2531 9.80074 30.2531 12.9742C30.183 15.2868 32.3654 16.6082 34.0272 17.4091C35.6791 18.1999 36.2797 18.7305 36.2797 19.4613C36.2797 20.5826 34.9583 21.0531 33.6969 21.0531C31.975 21.0531 31.054 20.7928 29.6625 20.1921L29.0718 19.9318L28.4812 23.5658C29.4722 24.0263 31.3243 24.4268 33.2464 24.4268C37.7413 24.4268 40.6545 22.2444 40.7246 18.8707C40.7246 17.0186 39.6033 15.5671 37.1507 14.4358C35.629 13.705 34.698 13.1744 34.698 12.4536C34.698 11.7929 35.4888 11.0621 37.1507 11.0621C38.5422 10.992 39.6033 11.3224 40.3241 11.6528L40.7246 11.853L41.3152 8.21901L41.2952 8.209Z" fill="#1434CB"/>
<path d="M46.9816 18.4002C47.3119 17.4691 48.7034 13.8352 48.7034 13.8352C48.7034 13.9052 49.0338 12.9041 49.2941 12.2434L49.6245 13.6349C49.6245 13.6349 50.4153 17.5392 50.6155 18.3301C49.8247 18.4002 47.8325 18.4002 46.9816 18.4002ZM52.2774 7.81857H48.9737C47.9827 7.81857 47.1918 8.07885 46.7213 9.14002L40.3743 24.0864H44.8692C44.8692 24.0864 45.6 22.1042 45.8003 21.6337H51.2863C51.4164 22.2244 51.8169 24.0864 51.8169 24.0864H55.7812L52.2774 7.80856V7.81857Z" fill="#1434CB"/>
<path d="M17.8696 7.81857L13.705 18.9307L13.2445 16.6783C12.4537 14.0954 10.001 11.2523 7.28802 9.86081L11.1222 24.0864H15.6872L22.3745 7.81857H17.8796H17.8696Z" fill="#1434CB"/>
<path d="M9.73069 7.81857H2.85316L2.78308 8.14893C8.13895 9.47038 11.7129 12.784 13.1645 16.6783L11.7129 9.20008C11.4526 8.13892 10.6517 7.87863 9.73069 7.80856V7.81857Z" fill="#1434CB"/>
<path d="M89.9886 5.91648H78.8564V25.9985H89.9886V5.91648Z" fill="#FF5A00"/>
<path d="M79.5772 15.9875C79.5772 11.9231 81.4693 8.30911 84.4225 5.91648C82.2501 4.24465 79.5272 3.1935 76.5739 3.1935C69.5062 3.1935 63.83 8.91978 63.83 15.9875C63.83 23.0553 69.5062 28.7815 76.5739 28.7815C79.5272 28.7815 82.2501 27.7204 84.4225 26.0586C81.4693 23.726 79.5772 20.052 79.5772 15.9875Z" fill="#EB001B"/>
<path d="M105.005 15.9875C105.005 23.0553 99.3289 28.7815 92.2612 28.7815C89.3079 28.7815 86.585 27.7204 84.4126 26.0586C87.3658 23.726 89.2579 20.102 89.2579 15.9875C89.2579 11.873 87.3658 8.30911 84.4126 5.91648C86.585 4.24465 89.3079 3.1935 92.2612 3.1935C99.3289 3.1935 105.005 8.91978 105.005 15.9875Z" fill="#F79E1B"/>
<path d="M151.126 2.1924H126.859C119.271 2.1924 113.074 8.39921 113.074 15.9775C113.074 23.5658 119.281 29.7626 126.859 29.7626H151.126C158.714 29.7626 164.911 23.5558 164.911 15.9775C164.911 8.38919 158.704 2.1924 151.126 2.1924Z" fill="white"/>
<path d="M151.126 3.31363C152.827 3.31363 154.479 3.654 156.041 4.31473C157.553 4.95543 158.904 5.87644 160.075 7.03771C161.237 8.19899 162.158 9.56048 162.798 11.0721C163.459 12.6338 163.799 14.2857 163.799 15.9875C163.799 17.6894 163.459 19.3412 162.798 20.9029C162.158 22.4146 161.237 23.766 160.075 24.9373C158.914 26.0986 157.553 27.0196 156.041 27.6603C154.479 28.321 152.827 28.6614 151.126 28.6614H126.859C125.157 28.6614 123.505 28.321 121.944 27.6603C120.432 27.0196 119.08 26.0986 117.909 24.9373C116.748 23.7761 115.827 22.4146 115.186 20.9029C114.525 19.3412 114.185 17.6894 114.185 15.9875C114.185 14.2857 114.525 12.6338 115.186 11.0721C115.827 9.56048 116.748 8.209 117.909 7.03771C119.07 5.87644 120.432 4.95543 121.944 4.31473C123.505 3.654 125.157 3.31363 126.859 3.31363H151.126ZM151.126 2.1924H126.859C119.271 2.1924 113.074 8.39921 113.074 15.9775C113.074 23.5658 119.281 29.7626 126.859 29.7626H151.126C158.714 29.7626 164.911 23.5558 164.911 15.9775C164.911 8.38919 158.704 2.1924 151.126 2.1924Z" fill="#3C4043"/>
<path d="M137.791 16.9686V21.1432H136.47V10.8319H139.983C140.874 10.8319 141.635 11.1322 142.256 11.7228C142.887 12.3135 143.207 13.0443 143.207 13.8952C143.207 14.7462 142.887 15.497 142.256 16.0776C141.645 16.6683 140.884 16.9486 139.983 16.9486H137.801L137.791 16.9686ZM137.791 12.1133V15.7072H140.003C140.524 15.7072 140.965 15.527 141.315 15.1766C141.665 14.8262 141.846 14.3958 141.846 13.9152C141.846 13.4347 141.665 13.0143 141.315 12.6639C140.975 12.3035 140.534 12.1233 140.003 12.1233H137.791V12.1133Z" fill="#3C4043"/>
<path d="M146.651 13.8552C147.632 13.8552 148.403 14.1155 148.963 14.646C149.524 15.1666 149.814 15.8874 149.814 16.7984V21.1432H148.553V20.1621H148.493C147.952 20.973 147.221 21.3734 146.31 21.3734C145.53 21.3734 144.879 21.1432 144.358 20.6827C143.838 20.2222 143.567 19.6515 143.567 18.9608C143.567 18.23 143.848 17.6493 144.398 17.2189C144.949 16.7884 145.69 16.5682 146.601 16.5682C147.392 16.5682 148.032 16.7083 148.543 16.9986V16.6983C148.543 16.2378 148.363 15.8474 148.002 15.527C147.642 15.2067 147.211 15.0465 146.721 15.0465C145.98 15.0465 145.399 15.3568 144.969 15.9875L143.808 15.2567C144.448 14.3257 145.399 13.8652 146.651 13.8652V13.8552ZM144.939 18.9708C144.939 19.3112 145.079 19.6015 145.379 19.8317C145.67 20.062 146.01 20.1721 146.411 20.1721C146.971 20.1721 147.462 19.9619 147.902 19.5514C148.343 19.141 148.553 18.6504 148.553 18.0998C148.142 17.7795 147.572 17.6093 146.831 17.6093C146.29 17.6093 145.85 17.7394 145.49 17.9997C145.129 18.27 144.949 18.5904 144.949 18.9708H144.939Z" fill="#3C4043"/>
<path d="M157.012 14.0854L152.597 24.2366H151.236L152.878 20.6827L149.964 14.0854H151.406L153.498 19.141H153.528L155.571 14.0854H157.012Z" fill="#3C4043"/>
<path d="M132.525 16.1277C132.525 15.6972 132.485 15.2868 132.415 14.8863H126.869V17.1588H130.063C129.932 17.9196 129.512 18.5603 128.881 18.9908V20.4624H130.783C131.895 19.4313 132.535 17.9196 132.535 16.1177L132.525 16.1277Z" fill="#4285F4"/>
<path d="M128.871 18.9908C128.341 19.3512 127.66 19.5614 126.859 19.5614C125.317 19.5614 124.016 18.5203 123.545 17.1188H121.583V18.6404C122.554 20.5725 124.556 21.894 126.859 21.894C128.451 21.894 129.792 21.3734 130.773 20.4624L128.871 18.9908Z" fill="#34A853"/>
<path d="M123.365 15.9875C123.365 15.5971 123.435 15.2167 123.545 14.8563V13.3346H121.583C121.183 14.1355 120.953 15.0365 120.953 15.9875C120.953 16.9386 121.183 17.8396 121.583 18.6404L123.545 17.1188C123.425 16.7584 123.365 16.3779 123.365 15.9875Z" fill="#FABB05"/>
<path d="M126.869 12.4236C127.74 12.4236 128.521 12.7239 129.131 13.3046L130.813 11.6227C129.792 10.6717 128.451 10.081 126.859 10.081C124.556 10.081 122.554 11.4025 121.583 13.3346L123.545 14.8563C124.016 13.4547 125.317 12.4136 126.859 12.4136L126.869 12.4236Z" fill="#E94235"/>
<path d="M212.343 2.06226H176.844C176.694 2.06226 176.544 2.06226 176.403 2.06226C176.283 2.06226 176.153 2.06226 176.033 2.06226C175.763 2.06226 175.492 2.08228 175.222 2.13234C174.952 2.18239 174.691 2.26248 174.451 2.38261C174.211 2.50274 173.981 2.66292 173.79 2.86314C173.6 3.05335 173.44 3.27359 173.31 3.52386C173.18 3.77414 173.1 4.02441 173.06 4.29471C173.01 4.565 173 4.8353 172.99 5.10559C172.99 5.22573 172.99 5.35587 172.99 5.476C172.99 5.62616 172.99 5.77633 172.99 5.91648V25.8784C172.99 26.0285 172.99 26.1787 172.99 26.3188C172.99 26.439 172.99 26.5691 172.99 26.6892C172.99 26.9595 173.01 27.2298 173.06 27.5001C173.11 27.7704 173.19 28.0307 173.31 28.271C173.43 28.5112 173.59 28.7415 173.79 28.9317C173.981 29.1219 174.201 29.2821 174.451 29.4122C174.701 29.5424 174.952 29.6225 175.222 29.6625C175.492 29.7126 175.763 29.7226 176.033 29.7326C176.153 29.7326 176.283 29.7326 176.403 29.7326C176.554 29.7326 176.704 29.7326 176.844 29.7326H212.343C212.493 29.7326 212.643 29.7326 212.783 29.7326C212.903 29.7326 213.033 29.7326 213.154 29.7326C213.424 29.7326 213.694 29.7126 213.965 29.6625C214.235 29.6125 214.485 29.5324 214.735 29.4122C214.976 29.2921 215.196 29.1319 215.396 28.9317C215.586 28.7415 215.746 28.5213 215.877 28.271C216.007 28.0207 216.087 27.7704 216.127 27.5001C216.177 27.2298 216.187 26.9595 216.197 26.6892C216.197 26.5691 216.197 26.439 216.197 26.3188C216.197 26.1687 216.197 26.0185 216.197 25.8784V5.9365C216.197 5.78634 216.197 5.63618 216.197 5.49602C216.197 5.37589 216.197 5.24575 216.197 5.12562C216.197 4.85532 216.177 4.58502 216.127 4.31473C216.077 4.04443 215.997 3.78415 215.877 3.54388C215.756 3.30362 215.586 3.08338 215.396 2.88316C215.206 2.69295 214.986 2.53278 214.735 2.40263C214.485 2.27249 214.235 2.1924 213.965 2.15236C213.694 2.1023 213.424 2.09229 213.154 2.08228C213.033 2.08228 212.903 2.08228 212.783 2.08228C212.633 2.08228 212.483 2.08228 212.343 2.08228V2.06226Z" fill="black"/>
<path d="M212.343 2.98327H212.783C212.903 2.98327 213.023 2.98327 213.144 2.98327C213.354 2.98327 213.594 3.00329 213.814 3.04333C214.014 3.08338 214.175 3.13343 214.335 3.21352C214.495 3.29361 214.635 3.39372 214.755 3.52386C214.885 3.654 214.986 3.79416 215.066 3.95433C215.146 4.11451 215.196 4.27468 215.236 4.4749C215.276 4.69514 215.286 4.94542 215.296 5.14564C215.296 5.26577 215.296 5.37589 215.296 5.49602C215.296 5.64619 215.296 5.78634 215.296 5.9365V25.8784C215.296 26.0285 215.296 26.1687 215.296 26.3188C215.296 26.439 215.296 26.5491 215.296 26.6692C215.296 26.8795 215.276 27.1197 215.236 27.35C215.206 27.5402 215.146 27.7104 215.066 27.8705C214.986 28.0307 214.885 28.1709 214.755 28.291C214.625 28.4211 214.485 28.5213 214.335 28.6013C214.175 28.6814 214.014 28.7315 213.824 28.7715C213.594 28.8116 213.344 28.8216 213.154 28.8316C213.033 28.8316 212.913 28.8316 212.793 28.8316C212.643 28.8316 212.503 28.8316 212.353 28.8316H176.844C176.704 28.8316 176.553 28.8316 176.413 28.8316C176.293 28.8316 176.173 28.8316 176.063 28.8316C175.873 28.8316 175.612 28.8116 175.392 28.7715C175.192 28.7315 175.032 28.6814 174.872 28.6013C174.711 28.5213 174.571 28.4211 174.451 28.291C174.331 28.1709 174.221 28.0207 174.141 27.8705C174.061 27.7104 174.011 27.5502 173.971 27.35C173.931 27.1197 173.921 26.8795 173.911 26.6792C173.911 26.5591 173.911 26.439 173.911 26.3289V5.49602C173.911 5.37589 173.911 5.25576 173.911 5.14564C173.911 4.93541 173.931 4.69514 173.971 4.4749C174.001 4.27468 174.061 4.11451 174.141 3.95433C174.221 3.79416 174.321 3.654 174.451 3.53387C174.571 3.41374 174.721 3.30362 174.872 3.22353C175.032 3.14344 175.192 3.09339 175.392 3.05335C175.622 3.0133 175.863 3.00329 176.063 2.99328C176.183 2.99328 176.303 2.99328 176.413 2.99328H212.353" fill="white"/>
<path d="M184.772 11.3725C185.143 10.912 185.393 10.2913 185.323 9.65057C184.782 9.68061 184.122 10.011 183.741 10.4715C183.401 10.8719 183.091 11.5126 183.171 12.1233C183.781 12.1733 184.392 11.823 184.772 11.3725Z" fill="black"/>
<path d="M185.323 12.2534C184.442 12.2034 183.691 12.754 183.271 12.754C182.85 12.754 182.2 12.2835 181.499 12.2935C180.588 12.3035 179.747 12.8241 179.286 13.6349C178.335 15.2667 179.036 17.6994 179.957 19.0309C180.408 19.6916 180.948 20.4124 181.659 20.3923C182.33 20.3623 182.6 19.9519 183.411 19.9519C184.222 19.9519 184.462 20.3923 185.173 20.3723C185.914 20.3623 186.374 19.7116 186.825 19.0509C187.335 18.3001 187.546 17.5693 187.566 17.5292C187.556 17.5192 186.144 16.9786 186.124 15.3568C186.114 13.9953 187.235 13.3546 187.285 13.3146C186.655 12.3736 185.663 12.2734 185.323 12.2434" fill="black"/>
<path d="M193.012 10.4114C194.934 10.4114 196.265 11.7329 196.265 13.665C196.265 15.5971 194.904 16.9285 192.962 16.9285H190.839V20.3123H189.308V10.4114H193.022H193.012ZM190.839 15.6371H192.601C193.943 15.6371 194.703 14.9163 194.703 13.665C194.703 12.4136 193.943 11.7028 192.611 11.7028H190.839V15.6371Z" fill="black"/>
<path d="M196.676 18.26C196.676 16.9986 197.647 16.2178 199.359 16.1277L201.331 16.0075V15.4569C201.331 14.6561 200.79 14.1755 199.879 14.1755C199.018 14.1755 198.488 14.586 198.358 15.2367H196.956C197.036 13.9353 198.147 12.9742 199.929 12.9742C201.711 12.9742 202.792 13.9052 202.792 15.3468V20.3223H201.371V19.131H201.341C200.92 19.9318 200.009 20.4424 199.068 20.4424C197.657 20.4424 196.666 19.5614 196.666 18.27L196.676 18.26ZM201.331 17.6093V17.0387L199.559 17.1488C198.678 17.2089 198.177 17.5993 198.177 18.22C198.177 18.8406 198.698 19.2611 199.499 19.2611C200.53 19.2611 201.341 18.5503 201.341 17.6093H201.331Z" fill="black"/>
<path d="M204.144 22.9652V21.7638C204.254 21.7939 204.504 21.7939 204.624 21.7939C205.315 21.7939 205.686 21.5036 205.906 20.7628C205.906 20.7527 206.036 20.3223 206.036 20.3123L203.433 13.0843H205.035L206.857 18.9608H206.887L208.709 13.0843H210.271L207.568 20.6727C206.947 22.4246 206.236 22.9852 204.745 22.9852C204.624 22.9852 204.254 22.9752 204.144 22.9552V22.9652Z" fill="black"/>
</svg>
