<svg width="49" height="44" viewBox="0 0 49 44" fill="none" xmlns="http://www.w3.org/2000/svg">
<path d="M26.3332 35.8333C26.3332 28.11 32.6098 21.8333 40.3332 21.8333C42.8998 21.8333 45.2798 22.5333 47.3332 23.7233V5.5C47.3332 4.26233 46.8415 3.07534 45.9663 2.20017C45.0912 1.325 43.9042 0.833336 42.6665 0.833336H5.33317C2.74317 0.833336 0.666504 2.91 0.666504 5.5V33.5C0.666504 34.7377 1.15817 35.9247 2.03334 36.7998C2.90851 37.675 4.09549 38.1667 5.33317 38.1667H26.5432C26.4265 37.3967 26.3332 36.6267 26.3332 35.8333ZM5.33317 10.1667V5.5L23.9998 17.1667L42.6665 5.5V10.1667L23.9998 21.8333L5.33317 10.1667ZM37.4165 43.2067L30.9998 36.2067L33.7065 33.5L37.4165 37.21L45.7932 28.8333L48.4998 32.1233L37.4165 43.2067Z" fill="#10C23F"/>
</svg>
