<svg width="20" height="17" viewBox="0 0 20 17" fill="none" xmlns="http://www.w3.org/2000/svg">
<path d="M11.67 7.037C11.5908 7.03646 11.5146 7.06729 11.458 7.12274C11.4014 7.1782 11.3691 7.25378 11.368 7.333V9.545C11.3691 9.62439 11.4015 9.70013 11.4583 9.75561C11.5151 9.8111 11.5916 9.8418 11.671 9.841H18.334C18.4134 9.8418 18.4899 9.8111 18.5467 9.75561C18.6035 9.70013 18.6359 9.62439 18.637 9.545V7.333C18.6359 7.25361 18.6035 7.17787 18.5467 7.12239C18.4899 7.0669 18.4134 7.0362 18.334 7.037H11.67ZM15.756 0.00100005C16.678 0.045 17.341 0.227 17.761 0.613C18.176 0.995 18.389 1.548 18.431 2.28V4.377C18.4289 4.55558 18.356 4.72603 18.2283 4.8509C18.1006 4.97578 17.9286 5.04487 17.75 5.043C17.6615 5.04406 17.5736 5.02767 17.4915 4.99477C17.4093 4.96187 17.3344 4.91311 17.2711 4.85126C17.2077 4.78942 17.1572 4.7157 17.1224 4.63433C17.0875 4.55295 17.069 4.46551 17.068 4.377L17.069 2.318C17.047 1.938 16.956 1.702 16.826 1.582C16.7 1.466 16.316 1.362 15.723 1.332H2.647C2.11 1.352 1.761 1.454 1.592 1.599C1.462 1.71 1.364 2.016 1.363 2.545L1.36 14.315C1.41 14.829 1.523 15.172 1.668 15.343C1.778 15.473 2.119 15.603 2.621 15.667H15.737C16.351 15.679 16.713 15.587 16.835 15.464C16.97 15.327 17.068 14.967 17.068 14.378V12.333C17.068 11.966 17.373 11.667 17.75 11.667C18.126 11.667 18.431 11.966 18.431 12.333V14.378C18.431 15.278 18.247 15.951 17.816 16.388C17.372 16.838 16.666 17.018 15.723 16.998L2.54 16.995C1.643 16.891 1 16.645 0.617 16.192C0.27 15.782 0.077 15.197 0 14.379V2.544C0.002 1.668 0.212 1.009 0.694 0.597C1.136 0.217 1.774 0.032 2.621 0L15.756 0.00100005ZM18.334 5.705C19.254 5.705 20 6.434 20 7.333V9.545C20 10.444 19.254 11.173 18.334 11.173H11.671C10.751 11.173 10.005 10.443 10.005 9.545V7.333C10.005 6.434 10.751 5.705 11.671 5.705H18.334ZM13.337 7.645C12.877 7.645 12.504 8.005 12.504 8.448C12.504 8.891 12.877 9.251 13.337 9.251C13.797 9.251 14.17 8.891 14.17 8.448C14.17 8.005 13.797 7.644 13.337 7.644" fill="#F2F2F2"/>
</svg>
