<svg width="20" height="21" viewBox="0 0 20 21" fill="none" xmlns="http://www.w3.org/2000/svg">
<path d="M11.67 8.83699C11.5908 8.83645 11.5146 8.86728 11.458 8.92273C11.4014 8.97819 11.3691 9.05377 11.368 9.13299V11.345C11.3691 11.4244 11.4015 11.5001 11.4583 11.5556C11.5151 11.6111 11.5916 11.6418 11.671 11.641H18.334C18.4134 11.6418 18.4899 11.6111 18.5467 11.5556C18.6035 11.5001 18.6359 11.4244 18.637 11.345V9.13299C18.6359 9.0536 18.6035 8.97786 18.5467 8.92238C18.4899 8.86689 18.4134 8.83619 18.334 8.83699H11.67ZM15.756 1.80099C16.678 1.84499 17.341 2.02699 17.761 2.41299C18.176 2.79499 18.389 3.34799 18.431 4.07999V6.17699C18.4289 6.35557 18.356 6.52602 18.2283 6.65089C18.1006 6.77577 17.9286 6.84486 17.75 6.84299C17.6615 6.84404 17.5736 6.82766 17.4915 6.79476C17.4093 6.76186 17.3344 6.71309 17.2711 6.65125C17.2077 6.5894 17.1572 6.51569 17.1224 6.43432C17.0875 6.35294 17.069 6.2655 17.068 6.17699L17.069 4.11799C17.047 3.73799 16.956 3.50199 16.826 3.38199C16.7 3.26599 16.316 3.16199 15.723 3.13199H2.647C2.11 3.15199 1.761 3.25399 1.592 3.39899C1.462 3.50999 1.364 3.81599 1.363 4.34499L1.36 16.115C1.41 16.629 1.523 16.972 1.668 17.143C1.778 17.273 2.119 17.403 2.621 17.467H15.737C16.351 17.479 16.713 17.387 16.835 17.264C16.97 17.127 17.068 16.767 17.068 16.178V14.133C17.068 13.766 17.373 13.467 17.75 13.467C18.126 13.467 18.431 13.766 18.431 14.133V16.178C18.431 17.078 18.247 17.751 17.816 18.188C17.372 18.638 16.666 18.818 15.723 18.798L2.54 18.795C1.643 18.691 1 18.445 0.617 17.992C0.27 17.582 0.077 16.997 0 16.179V4.34399C0.002 3.46799 0.212 2.80899 0.694 2.39699C1.136 2.01699 1.774 1.83199 2.621 1.79999L15.756 1.80099ZM18.334 7.50499C19.254 7.50499 20 8.23399 20 9.13299V11.345C20 12.244 19.254 12.973 18.334 12.973H11.671C10.751 12.973 10.005 12.243 10.005 11.345V9.13299C10.005 8.23399 10.751 7.50499 11.671 7.50499H18.334ZM13.337 9.44499C12.877 9.44499 12.504 9.80499 12.504 10.248C12.504 10.691 12.877 11.051 13.337 11.051C13.797 11.051 14.17 10.691 14.17 10.248C14.17 9.80499 13.797 9.44399 13.337 9.44399" fill="#F2F2F2"/>
</svg>
