<svg width="23" height="23" viewBox="0 0 23 23" fill="none" xmlns="http://www.w3.org/2000/svg">
<path d="M19.6573 5.35325L19.1331 5.87746C18.8662 6.14433 18.5043 6.29426 18.1269 6.29426C17.7495 6.29426 17.3875 6.14433 17.1206 5.87746C16.8537 5.61058 16.7038 5.24862 16.7038 4.87121C16.7038 4.49379 16.8537 4.13183 17.1206 3.86496L17.6448 3.34075L14.3041 0L10.0874 4.21667L9.89575 4.79598L9.31644 4.98765L0 14.3041L3.34267 17.6467L3.86687 17.1225C4.13375 16.8557 4.49571 16.7057 4.87312 16.7057C5.25054 16.7057 5.6125 16.8557 5.87937 17.1225C6.14625 17.3894 6.29618 17.7514 6.29618 18.1288C6.29618 18.5062 6.14625 18.8682 5.87937 19.135L5.35517 19.6592L8.69592 23L18.0109 13.685L18.2026 13.1057L18.7819 12.914L22.9986 8.69735L19.6573 5.35325ZM9.66383 5.61344L10.7118 4.5655L12.293 6.14675L11.2446 7.19469L9.66383 5.61344ZM11.7242 7.67385L12.7727 6.62544L14.3309 8.18369L13.2825 9.2321L11.7242 7.67385ZM13.7636 9.71319L14.812 8.66477L16.3703 10.223L15.3237 11.2738L13.7636 9.71319ZM17.3846 13.3338L15.8034 11.7525L16.8513 10.7041L18.4326 12.2854L17.3846 13.3338Z" fill="#F2F2F2"/>
</svg>
